<svg aria-hidden="true" style="position: absolute; width: 0; height: 0; overflow: hidden;" version="1.1" xmlns="http://www.w3.org/2000/svg" xmlns:xlink="http://www.w3.org/1999/xlink">
<defs>
<symbol id="icon-monitor" viewBox="0 0 32 32">
<path d="M17 24.938h-3v1.562l-3 0.5v1h8.938v-0.938l-2.938-0.562v-1.562zM27 4h-23c-1.105 0-2 0.895-2 2v14c0 1.104 0.895 2 2 2h23c1.105 0 2-0.896 2-2v-14c0-1.105-0.895-2-2-2zM15.375 20.5c-0.552 0-1-0.448-1-1 0-0.553 0.448-1 1-1 0.553 0 1 0.447 1 1 0 0.552-0.448 1-1 1zM27 17h-23v-11h23v11z"></path>
</symbol>
<symbol id="icon-locked" viewBox="0 0 32 32">
<path d="M4 31v-16h3v-5c0-4.418 3.581-8 8-8h1c4.418 0 8 3.582 8 8v5h3v16h-23zM14.744 22.787l-0.744 5.213h3l-0.745-5.213c0.729-0.298 1.245-1.013 1.245-1.85 0-1.104-0.896-2-2-2-1.105 0-2 0.896-2 2 0 0.837 0.515 1.552 1.244 1.85zM21 10.5c0-3.038-2.463-5.5-5.5-5.5-3.038 0-5.5 2.462-5.5 5.5v4.5h11v-4.5z"></path>
</symbol>
<symbol id="icon-box" viewBox="0 0 32 32">
<path d="M1.735 17.832l12.054 6.081 2.152-6.081-12.053-5.758-2.153 5.758zM16.211 17.832l2.045 6.027 12.484-6.081-2.422-5.704-12.107 5.758zM-0.247 7.212l4.144 4.843 12.053-6.134-3.928-5.005-12.269 6.296zM32.247 7.319l-12.001-6.403-4.090 5.005 12.162 6.134 3.929-4.736zM3.175 19.353l-0.041 5.839 12.713 5.893v-10.98l-1.816 4.736-10.856-5.488zM16.291 20.105v10.979l12.674-5.893v-5.799l-10.99 5.46-1.684-4.747z"></path>
</symbol>
<symbol id="icon-hourglass" viewBox="0 0 32 32">
<path d="M24.5 28c0.275 0 0.5 0.224 0.5 0.5s0 1.5 0 1.5h-19c0 0 0-1.224 0-1.5s0.224-0.5 0.5-0.5h1.67c0.083-6.658 4.432-8.804 4.432-11.495 0-2.705-4.429-2.885-4.471-11.505h-1.631c-0.276 0-0.5-0.224-0.5-0.5s0-1.5 0-1.5h19c0 0 0 1.224 0 1.5s-0.225 0.5-0.5 0.5h-1.53c-0.042 8.62-4.471 8.8-4.471 11.505 0 2.691 4.35 4.837 4.433 11.495h1.568zM17.111 16.505c0-2.716 4.43-2.885 4.471-11.505h-12.063c0.041 8.62 4.471 8.789 4.471 11.505 0 2.611-4.351 4.812-4.433 11.495h0.758c0.178-0.593 0.769-1.306 1.79-1.834l1.327-0.677c0.834-0.431 1.334-0.722 1.5-0.872s0.354-0.486 0.564-1.008c0.221 0.521 0.41 0.857 0.57 1.008s0.654 0.441 1.484 0.872l1.32 0.677c1.015 0.528 1.604 1.241 1.779 1.834h0.894c-0.082-6.683-4.432-8.884-4.432-11.495zM16.070 15.037c-0.12 0.236-0.221 0.685-0.301 1.347-0.020 0.2-0.064 0.501-0.135 0.902-0.070-0.401-0.115-0.702-0.135-0.902-0.081-0.662-0.182-1.11-0.303-1.347-0.121-0.235-0.462-0.658-1.025-1.271l-1.251-1.368c-0.855-0.922-1.403-1.584-1.644-1.984 1.484 0.945 2.933 1.418 4.347 1.418s2.868-0.473 4.362-1.418c-0.25 0.4-0.8 1.062-1.649 1.984l-1.246 1.368c-0.56 0.613-0.901 1.036-1.020 1.271z"></path>
</symbol>
<symbol id="icon-square" viewBox="0 0 32 32">
<path d="M28 24v4h-4v-1h-16v1h-4v-4h1v-16h-1v-4h4v1h16v-1h4v4h-1v16h1zM5 27h2v-2h-2v2zM7 5h-2v2h2v-2zM24 7h-16v1h-1v16h1v1h16v-1h1v-16h-1v-1zM27 5h-2v2h2v-2zM25 25v2h2v-2h-2z"></path>
</symbol>
<symbol id="icon-square1" viewBox="0 0 32 32">
<path d="M28 24v4h-4v-1h-6v1h-4v-1h-6v1h-4v-4h1v-6h-1v-4h1v-6h-1v-4h4v1h6v-1h4v1h6v-1h4v4h-1v6h1v4h-1v6h1zM15 27h2v-2h-2v2zM5 27h2v-2h-2v2zM5 17h2v-2h-2v2zM7 5h-2v2h2v-2zM17 5h-2v2h2v-2zM24 7h-6v1h-4v-1h-6v1h-1v6h1v4h-1v6h1v1h6v-1h4v1h6v-1h1v-6h-1v-4h1v-6h-1v-1zM27 5h-2v2h2v-2zM27 15h-2v2h2v-2zM25 25v2h2v-2h-2z"></path>
</symbol>
<symbol id="icon-collapse" viewBox="0 0 32 32">
<path d="M11.493 8.757l-3.454-3.453-2.665 2.665 3.454 3.453-2.59 2.59 7.797 0.004-0.017-7.784-2.525 2.525zM23.172 11.422l3.454-3.453-2.665-2.665-3.454 3.453-2.525-2.525-0.017 7.784 7.797-0.004-2.59-2.59zM8.828 20.578l-3.454 3.453 2.665 2.665 3.454-3.453 2.526 2.525 0.017-7.784-7.797 0.004 2.589 2.59zM25.762 17.988l-7.797-0.004 0.017 7.784 2.525-2.525 3.454 3.453 2.665-2.665-3.454-3.453 2.59-2.59z"></path>
</symbol>
<symbol id="icon-tags" viewBox="0 0 32 32">
<path d="M25.994 16.144l-12.225-12.225-11.769 0.045 0.018 10.831 12.662 12.662c0.794 0.795 2.072 0.806 2.854 0.024l8.484-8.485c0.781-0.781 0.771-2.058-0.024-2.852zM7.081 10.952c-1.104 0-2-0.896-2-2s0.896-2 2-2c1.105 0 2 0.896 2 2s-0.895 2-2 2zM28.846 16.168l-12.225-12.225-1.471 0.005 12.27 12.207c0.795 0.795 0.805 2.071 0.023 2.853l-8.484 8.485c-0.207 0.207-0.451 0.354-0.709 0.451 0.721 0.277 1.561 0.135 2.135-0.438l8.486-8.485c0.781-0.782 0.77-2.059-0.025-2.853z"></path>
</symbol>
</defs>
</svg>
